<svg width="74" height="70" viewBox="0 0 74 70" fill="none" xmlns="http://www.w3.org/2000/svg">
<path d="M22.6682 41.4209H66.2824L74 13.9576H62.6435L58.566 1.4001L41.5609 6.89566L43.8861 13.9576H43.0861L38.8877 1.4001L21.8826 6.89566L24.2078 13.9576H15.1161L13.2284 6.42936C12.2785 2.66524 8.98533 0 5.19542 0H0V3.1472H5.19542C7.55082 3.1472 9.6053 4.71358 10.2398 7.0776L18.5918 39.6606C16.8697 40.8956 15.7373 42.9126 15.7373 45.2164C15.7373 48.9805 18.894 52.1277 22.6694 52.1277H65.1814V48.9805H22.6682C20.6149 48.9805 18.8928 47.249 18.8928 45.2164C18.8928 43.1536 20.6294 41.4209 22.6682 41.4209ZM56.5272 5.31482L59.3661 13.7913H47.0875L45.3521 8.92832L56.5272 5.31482ZM36.8489 5.31482L39.6877 13.7913H27.4092L25.6738 8.92832L36.8489 5.31482ZM69.908 16.9385L63.927 38.2894H21.4149L15.9029 16.9385H69.908Z" fill="black"/>
<path d="M51.331 56.8096C47.7067 56.8096 44.7168 59.7905 44.7168 63.404C44.7168 67.0175 47.7067 69.9984 51.331 69.9984C55.1064 69.9984 57.9452 67.0175 57.9452 63.404C57.9464 59.7905 54.9554 56.8096 51.331 56.8096ZM51.331 67.0175C49.2777 67.0175 47.7067 65.286 47.7067 63.404C47.7067 61.3557 49.4433 59.7905 51.331 59.7905C53.3843 59.7905 54.9554 61.3569 54.9554 63.404C54.9554 65.4523 53.2187 67.0175 51.331 67.0175Z" fill="black"/>
<path d="M27.0771 56.8096C23.4528 56.8096 20.4629 59.7905 20.4629 63.404C20.4629 67.0175 23.4528 69.9984 27.0771 69.9984C30.7015 69.9984 33.6913 67.0175 33.6913 63.404C33.6913 59.7905 30.7015 56.8096 27.0771 56.8096ZM27.0771 67.0175C25.0238 67.0175 23.4528 65.286 23.4528 63.404C23.4528 61.3557 25.1894 59.7905 27.0771 59.7905C28.9648 59.7905 30.7015 61.3569 30.7015 63.404C30.7015 65.4523 28.9648 67.0175 27.0771 67.0175Z" fill="black"/>
</svg>
