<svg width="58" height="72" viewBox="0 0 58 72" fill="none" xmlns="http://www.w3.org/2000/svg">
<path d="M42.6295 72.0003H4.5592C2.03914 72.0003 0 69.9684 0 67.4572V15.0099C0 12.4987 2.03914 10.4668 4.5592 10.4668H42.6295C45.1496 10.4668 47.1887 12.4987 47.1887 15.0099V67.4572C47.208 69.9684 45.1496 72.0003 42.6295 72.0003ZM4.5592 12.7671C3.32803 12.7671 2.32769 13.7639 2.32769 14.9908V67.438C2.32769 68.6649 3.32803 69.6617 4.5592 69.6617H42.6295C43.8607 69.6617 44.861 68.6649 44.861 67.438V15.0099C44.861 13.7831 43.8607 12.7863 42.6295 12.7863H4.5592V12.7671Z" fill="#B5B5B5"/>
<path d="M23.6049 29.5398C19.642 29.5398 16.4102 26.3194 16.4102 22.3705C16.4102 18.4216 19.642 15.2012 23.6049 15.2012C27.5677 15.2012 30.7995 18.4216 30.7995 22.3705C30.7995 26.3386 27.5677 29.5398 23.6049 29.5398ZM23.6049 17.5398C20.9309 17.5398 18.7379 19.706 18.7379 22.3897C18.7379 25.0734 20.9117 27.2395 23.6049 27.2395C26.2788 27.2395 28.4719 25.0734 28.4719 22.3897C28.4719 19.706 26.2788 17.5398 23.6049 17.5398Z" fill="#B5B5B5"/>
<path d="M35.069 44.4149H12.1383C11.5035 44.4149 10.9648 43.8974 10.9648 43.2456V36.5555C10.9648 32.7216 14.0813 29.6162 17.9287 29.6162H18.2942C19.1406 29.6162 19.9101 29.9613 20.4103 30.5555L23.6037 34.7536L26.7585 30.5938C27.2972 29.9613 28.0667 29.6162 28.9131 29.6162H29.2786C33.126 29.6162 36.2425 32.7216 36.2425 36.5555V43.2456C36.2232 43.8974 35.7038 44.4149 35.069 44.4149ZM13.3118 42.0954H33.8955V36.5555C33.8955 34.006 31.8179 31.9357 29.2594 31.9357H28.8939C28.7207 31.9357 28.6053 31.9932 28.5668 32.0507L24.527 37.3798C24.0846 37.9549 23.1035 37.9549 22.661 37.3798L18.5828 31.9932C18.5828 31.9932 18.4481 31.9357 18.2942 31.9357H17.9287C15.3702 31.9357 13.2925 34.006 13.2925 36.5555V42.0954H13.3118Z" fill="#B5B5B5"/>
<path d="M39.9564 52.1599H7.23401C6.59919 52.1599 6.06055 51.6424 6.06055 50.9906C6.06055 50.358 6.57995 49.8213 7.23401 49.8213H39.9564C40.5912 49.8213 41.1299 50.3389 41.1299 50.9906C41.1299 51.6424 40.6105 52.1599 39.9564 52.1599Z" fill="#B5B5B5"/>
<path d="M39.9564 58.4471H7.23401C6.59919 58.4471 6.06055 57.9295 6.06055 57.2777C6.06055 56.6451 6.57995 56.1084 7.23401 56.1084H39.9564C40.5912 56.1084 41.1299 56.626 41.1299 57.2777C41.1299 57.9295 40.6105 58.4471 39.9564 58.4471Z" fill="#B5B5B5"/>
<path d="M39.9564 64.7351H7.23401C6.59919 64.7351 6.06055 64.2176 6.06055 63.5658C6.06055 62.9332 6.57995 62.3965 7.23401 62.3965H39.9564C40.5912 62.3965 41.1299 62.9141 41.1299 63.5658C41.1299 64.2176 40.6105 64.7351 39.9564 64.7351Z" fill="#B5B5B5"/>
<path d="M53.4417 61.5527H51.4411C50.8062 61.5527 50.2676 61.0351 50.2676 60.3834V9.77636C50.2676 8.54952 49.2673 7.55272 48.0361 7.55272H11.9664C11.3316 7.55272 10.793 7.03514 10.793 6.38339V4.54313C10.8122 2.03195 12.8513 0 15.3714 0H53.4417C55.9618 0 58.0009 2.03195 58.0009 4.54313V56.9904C58.0009 59.5016 55.9618 61.5527 53.4417 61.5527ZM52.5953 59.2332H53.4225C54.6537 59.2332 55.654 58.2364 55.654 57.0096V4.54313C55.654 3.31629 54.6537 2.31949 53.4225 2.31949H15.3714C14.1402 2.31949 13.1399 3.31629 13.1399 4.54313V5.21406H48.0361C50.5562 5.21406 52.5953 7.24601 52.5953 9.75719V59.2332Z" fill="#B5B5B5"/>
<path d="M48.0355 66.767H46.0348C45.4 66.767 44.8613 66.2494 44.8613 65.5976V15.0098C44.8613 13.7829 43.861 12.7861 42.6298 12.7861H6.56019C5.92536 12.7861 5.38672 12.2685 5.38672 11.6168V9.77653C5.38672 7.26535 7.42586 5.2334 9.94592 5.2334H48.0162C50.5363 5.2334 52.5754 7.26535 52.5754 9.77653V62.2238C52.5947 64.735 50.5555 66.767 48.0355 66.767ZM47.2083 64.4475H48.0355C49.2667 64.4475 50.267 63.4507 50.267 62.2238V9.77653C50.267 8.54969 49.2667 7.55289 48.0355 7.55289H9.96516C8.73398 7.55289 7.73365 8.54969 7.73365 9.77653V10.4475H42.6298C45.1499 10.4475 47.189 12.4794 47.189 14.9906V64.4475H47.2083Z" fill="#B5B5B5"/>
</svg>
