<svg width="70" height="64" viewBox="0 0 70 64" fill="none" xmlns="http://www.w3.org/2000/svg">
<path d="M38.2542 25.6911H31.7463C29.5694 25.6911 27.7554 23.9829 27.642 21.7964L26.4175 1.45765C26.3948 1.07046 26.5309 0.70605 26.7803 0.43274C27.0297 0.159431 27.4152 0 27.8007 0H42.2225C42.608 0 42.9708 0.159431 43.2202 0.43274C43.4696 0.70605 43.6057 1.09324 43.583 1.45765L42.3585 21.7964C42.2452 23.9829 40.4311 25.6911 38.2542 25.6911ZM29.252 2.75587L30.3857 21.637C30.4311 22.3658 31.0207 22.9352 31.7463 22.9352H38.2542C38.9798 22.9352 39.5921 22.3658 39.6148 21.637L40.7486 2.75587H29.252Z" fill="#040404"/>
<path d="M64.5125 64.0003H5.48753C2.47166 64.0003 0 61.5177 0 58.4658V20.7718C0 17.7199 2.47166 15.2601 5.48753 15.2601H28.6848C29.4104 15.2601 30.0227 15.8295 30.0454 16.5583L30.3855 21.6373C30.4308 22.3661 31.0204 22.9355 31.746 22.9355H38.254C38.9796 22.9355 39.5918 22.3661 39.6145 21.6373L39.9093 16.5355C39.9547 15.8067 40.5442 15.2373 41.2698 15.2373H64.4671C67.5057 15.2373 69.9547 17.7199 69.9547 20.749V30.8615C69.9547 31.6131 69.3424 32.2508 68.5714 32.2508C67.8231 32.2508 67.1882 31.6359 67.1882 30.8615V20.7718C67.1882 19.2458 65.9637 18.016 64.4445 18.016H42.5397L42.3129 21.8195C42.1769 24.006 40.3855 25.7142 38.2086 25.7142H31.746C29.5692 25.7142 27.7551 24.006 27.6417 21.8195L27.415 18.016H5.48753C3.96825 18.016 2.74376 19.2458 2.74376 20.7718V58.4658C2.74376 59.9918 3.96825 61.2216 5.48753 61.2216H64.5125C66.0318 61.2216 67.2562 59.9918 67.2562 58.4658V53.6373C67.2562 52.8857 67.8685 52.248 68.6395 52.248C69.3878 52.248 70.0227 52.8629 70.0227 53.6373V58.4658C70 61.5177 67.5284 64.0003 64.5125 64.0003Z" fill="#040404"/>
<path d="M68.6391 55.0264C67.8908 55.0264 67.2559 54.4114 67.2559 53.6371V50.1979C67.2559 49.4463 67.8681 48.8086 68.6391 48.8086C69.3874 48.8086 70.0223 49.4235 70.0223 50.1979V53.6371C69.9996 54.4114 69.3874 55.0264 68.6391 55.0264Z" fill="#040404"/>
<path d="M68.6391 46.2804C67.8908 46.2804 67.2559 45.6655 67.2559 44.8911V39.6071C67.2559 38.8555 67.8681 38.2178 68.6391 38.2178C69.3874 38.2178 70.0223 38.8327 70.0223 39.6071V44.8911C69.9996 45.6655 69.3874 46.2804 68.6391 46.2804Z" fill="#040404"/>
<path d="M68.6391 35.7119C67.8908 35.7119 67.2559 35.097 67.2559 34.3226V30.8835C67.2559 30.1319 67.8681 29.4941 68.6391 29.4941C69.3874 29.4941 70.0223 30.1091 70.0223 30.8835V34.3226C69.9996 35.0742 69.3874 35.7119 68.6391 35.7119Z" fill="#040404"/>
<path d="M19.819 41.6115C15.7374 41.6115 12.4268 38.2863 12.4268 34.1866C12.4268 30.087 15.7374 26.7617 19.819 26.7617C23.9007 26.7617 27.2113 30.087 27.2113 34.1866C27.234 38.2635 23.9007 41.6115 19.819 41.6115ZM19.819 29.4948C17.2567 29.4948 15.1705 31.5902 15.1705 34.1639C15.1705 36.7375 17.2567 38.8329 19.819 38.8329C22.3814 38.8329 24.4676 36.7375 24.4676 34.1639C24.4676 31.5902 22.4041 29.4948 19.819 29.4948Z" fill="#040404"/>
<path d="M31.2928 56.598H8.3676C7.6193 56.598 6.98438 55.983 6.98438 55.2086V48.4442C6.98438 44.4812 10.2043 41.2471 14.1499 41.2471H14.5127C15.4198 41.2471 16.2361 41.6115 16.7803 42.272L19.8188 46.3033L22.812 42.3403C23.4016 41.6343 24.2179 41.2698 25.125 41.2698H25.4878C29.4334 41.2698 32.6533 44.504 32.6533 48.467V55.2314C32.676 55.983 32.0637 56.598 31.2928 56.598ZM9.72814 53.8421H29.9095V48.467C29.9095 46.0072 27.9141 44.0257 25.4878 44.0257H25.125C25.0343 44.0257 24.9662 44.0485 24.9436 44.0713L20.93 49.4236C20.4084 50.1069 19.252 50.1069 18.7304 49.4236L14.6488 44.0029C14.6715 44.0485 14.6261 44.0257 14.5127 44.0257H14.1726C11.7236 44.0257 9.75082 46.03 9.75082 48.467V53.8421H9.72814Z" fill="#040404"/>
<path d="M59.8862 36.9199H40.0903C39.342 36.9199 38.707 36.305 38.707 35.5306C38.707 34.7562 39.3193 34.1641 40.0903 34.1641H59.8862C60.6345 34.1641 61.2694 34.779 61.2694 35.5534C61.2694 36.3278 60.6345 36.9199 59.8862 36.9199Z" fill="#040404"/>
<path d="M59.8862 43.5247H40.0903C39.342 43.5247 38.707 42.9098 38.707 42.1354C38.707 41.3838 39.3193 40.7461 40.0903 40.7461H59.8862C60.6345 40.7461 61.2694 41.361 61.2694 42.1354C61.2694 42.9098 60.6345 43.5247 59.8862 43.5247Z" fill="#040404"/>
<path d="M59.8862 50.1068H40.0903C39.342 50.1068 38.707 49.4918 38.707 48.7174C38.707 47.9658 39.3193 47.3281 40.0903 47.3281H59.8862C60.6345 47.3281 61.2694 47.9431 61.2694 48.7174C61.2694 49.4918 60.6345 50.1068 59.8862 50.1068Z" fill="#040404"/>
</svg>
