<svg width="57" height="74" viewBox="0 0 57 74" fill="none" xmlns="http://www.w3.org/2000/svg">
<path d="M46.4444 27.7319V12.6712C46.4444 5.68395 40.7299 0 33.705 0H31.3755C24.7087 0 19.2228 5.11918 18.6811 11.6126C8.2872 12.1557 0 20.7374 0 31.2074V54.3777C0 65.1968 8.85065 74 19.728 74C30.6053 74 39.4559 65.1968 39.4559 54.3777V31.2074C39.4559 20.7707 31.2197 12.2107 20.8723 11.6184C21.4052 6.32258 25.9128 2.17221 31.3755 2.17221H33.705C39.5258 2.17221 44.2605 6.88157 44.2605 12.6712V27.7319C44.2605 34.7192 49.9751 40.4031 57 40.4031V38.2309C51.1792 38.2309 46.4444 33.5216 46.4444 27.7319ZM18.4904 31.2798V24.184H20.9655V31.2798H18.4904ZM18.636 13.7921V22.0117H16.3065V33.4521H18.636V39.3894H2.18391V31.2074C2.18391 21.9509 9.46943 14.3554 18.636 13.7921ZM19.728 71.8278C10.0547 71.8278 2.18391 63.9991 2.18391 54.3777V41.5616H37.272V54.3777C37.272 63.9991 29.4012 71.8278 19.728 71.8278ZM37.272 31.2074V39.3894H20.8199V33.4521H23.1494V22.0117H20.8199V13.7921C29.9865 14.3554 37.272 21.9509 37.272 31.2074Z" fill="black"/>
</svg>
