<svg width="71" height="46" viewBox="0 0 71 46" fill="none" xmlns="http://www.w3.org/2000/svg">
<path d="M64.8181 22.7365C65.0643 21.5145 65.1955 20.2511 65.1955 18.9552C65.1955 8.48721 56.7331 0 46.2958 0C38.5559 0 31.905 4.66986 28.983 11.3511C26.7384 9.88402 24.0626 9.0243 21.1837 9.0243C13.6145 9.0243 7.43084 14.9197 6.91508 22.3814C2.83756 24.2577 0 28.3778 0 33.172C0 39.7325 5.30312 45.0494 11.8426 45.0494C11.8426 45.0494 24.6736 45.0494 28.9488 45.0494C29.788 45.0494 29.8276 44.1158 29.8276 44.1158V36.4955C29.8276 35.8449 29.2957 35.3114 28.6469 35.3114H25.4104C24.7617 35.3114 24.546 34.8824 24.9324 34.3598L34.7965 21.0062C35.1828 20.4836 35.8154 20.4836 36.2018 21.0062L46.0658 34.3598C46.4522 34.8824 46.2365 35.3114 45.5878 35.3114H42.3513C41.7025 35.3114 41.1706 35.8431 41.1706 36.4955V44.1302C41.1706 44.1302 41.2191 45.0494 42.0889 45.0494C46.3569 45.0494 59.1574 45.0494 59.1574 45.0494C65.6987 45.0494 71 39.7307 71 33.172C71.0018 28.668 68.5021 24.7497 64.8181 22.7365Z" fill="#8D8D8D"/>
</svg>
