<svg width="27" height="24" viewBox="0 0 27 24" fill="none" xmlns="http://www.w3.org/2000/svg">
<path d="M26.7421 21.1356L15.1458 0.954786C14.8025 0.357118 14.1871 0 13.5 0C12.8129 0 12.1975 0.357118 11.8542 0.954786L0.257871 21.1356C-0.085957 21.7338 -0.085957 22.4475 0.257871 23.0452C0.601699 23.6434 1.21658 24 1.90424 24H25.0968C25.7839 24 26.3994 23.6429 26.7427 23.0452C27.086 22.4475 27.086 21.7333 26.7421 21.1356ZM25.3705 22.2494C25.3362 22.3087 25.255 22.4083 25.0963 22.4083H1.90371C1.74445 22.4083 1.66324 22.3087 1.62949 22.2494C1.59521 22.19 1.54986 22.0698 1.62949 21.9309L13.2258 1.75062C13.3054 1.61233 13.432 1.59166 13.5 1.59166C13.5686 1.59166 13.6946 1.61233 13.7742 1.75062L25.3705 21.9309C25.4501 22.0698 25.4048 22.19 25.3705 22.2494Z" fill="#CB3530"/>
<path d="M14.2922 7.23633H12.708V15.7245H14.2922V7.23633Z" fill="#CB3530"/>
<path d="M13.5001 19.4369C14.0832 19.4369 14.5558 18.962 14.5558 18.3762C14.5558 17.7903 14.0832 17.3154 13.5001 17.3154C12.917 17.3154 12.4443 17.7903 12.4443 18.3762C12.4443 18.962 12.917 19.4369 13.5001 19.4369Z" fill="#CB3530"/>
</svg>
